<svg width="25" height="25" viewBox="0 0 29 29" fill="none" xmlns="http://www.w3.org/2000/svg">
<path d="M25.3866 22.2318C27.1152 20.6912 28.094 18.6377 28.094 16.5067C28.094 14.242 27.0338 12.124 25.1087 10.5425C23.235 9.00376 20.7549 8.15625 18.125 8.15625C15.4951 8.15625 13.015 9.00376 11.1416 10.5426C9.21645 12.124 8.15625 14.242 8.15625 16.5067C8.15625 18.7714 9.21645 20.8895 11.1416 22.471C13.015 24.0098 15.4951 24.8572 18.125 24.8572C18.4754 24.8572 18.828 24.8418 19.1777 24.811L19.775 25.3288C21.8328 27.112 24.4645 28.0936 27.1875 28.0938H28.0938V26.1647L27.8283 25.8994C26.7813 24.8492 25.9516 23.603 25.3866 22.2318ZM20.9621 23.959L19.7635 22.9201L19.3638 22.9691C18.9528 23.0194 18.5391 23.0446 18.125 23.0446C13.6277 23.0446 9.96875 20.1117 9.96875 16.5067C9.96875 12.9017 13.6277 9.96875 18.125 9.96875C22.6223 9.96875 26.2813 12.9017 26.2813 16.5067C26.2813 18.3028 25.3852 19.9796 23.7581 21.2282L23.2362 21.6287L23.477 22.3103C23.9706 23.7026 24.696 25.0013 25.6227 26.1515C23.897 25.8635 22.2843 25.1048 20.9621 23.959Z" fill="black"/>
<path d="M3.40892 17.982C4.25724 16.9082 4.9233 15.7022 5.38046 14.4124L5.61949 13.7341L5.098 13.3339C3.56371 12.1566 2.71875 10.5764 2.71875 8.88448C2.71875 5.48468 6.17434 2.71875 10.4219 2.71875C13.5466 2.71875 16.2427 4.21576 17.4497 6.36074C17.6738 6.34987 17.8989 6.34375 18.125 6.34375C18.5791 6.34375 19.0291 6.36578 19.475 6.40985C19.0085 5.20142 18.1985 4.09829 17.0847 3.18354C15.297 1.71502 12.9311 0.90625 10.4219 0.90625C7.9127 0.90625 5.5467 1.71502 3.7589 3.18354C1.91932 4.69466 0.90625 6.71928 0.90625 8.88448C0.90625 10.9122 1.83244 12.866 3.46924 14.3357C2.93508 15.6212 2.15458 16.7897 1.17172 17.7755L0.90625 18.0409V19.9375H1.8125C3.48833 19.9373 5.14111 19.547 6.64004 18.7976C6.47567 18.1746 6.37937 17.5357 6.35281 16.8919C5.44304 17.4251 4.44655 17.7941 3.40892 17.982Z" fill="black"/>
</svg>
