<svg width="25" height="25" viewBox="0 0 29 29" fill="none" xmlns="http://www.w3.org/2000/svg">
<path d="M10.3614 4.8293C10.3614 3.54849 10.7974 2.32014 11.5736 1.41447C12.3498 0.5088 13.4024 0 14.5001 0C15.5978 0 16.6505 0.5088 17.4266 1.41447C18.2028 2.32014 18.6388 3.54849 18.6388 4.8293C18.6388 6.11012 18.2028 7.33847 17.4266 8.24414C16.6505 9.14981 15.5978 9.65861 14.5001 9.65861C13.4024 9.65861 12.3498 9.14981 11.5736 8.24414C10.7974 7.33847 10.3614 6.11012 10.3614 4.8293ZM14.5001 2.41707C14.2286 2.41707 13.9598 2.47946 13.709 2.60069C13.4582 2.72192 13.2303 2.8996 13.0383 3.1236C12.8463 3.34759 12.6941 3.61352 12.5902 3.90618C12.4863 4.19885 12.4328 4.51253 12.4328 4.8293C12.4328 5.14608 12.4863 5.45976 12.5902 5.75243C12.6941 6.04509 12.8463 6.31102 13.0383 6.53501C13.2303 6.75901 13.4582 6.93669 13.709 7.05792C13.9598 7.17915 14.2286 7.24154 14.5001 7.24154C15.0484 7.24154 15.5742 6.98739 15.9619 6.53501C16.3496 6.08263 16.5674 5.46907 16.5674 4.8293C16.5674 4.18954 16.3496 3.57598 15.9619 3.1236C15.5742 2.67121 15.0484 2.41707 14.5001 2.41707Z" fill="black"/>
<path d="M20.7144 6.0379C20.7144 5.56178 20.7948 5.09032 20.9509 4.65044C21.1071 4.21056 21.336 3.81088 21.6245 3.47421C21.913 3.13754 22.2555 2.87048 22.6325 2.68827C23.0095 2.50607 23.4135 2.41229 23.8216 2.41229C24.2296 2.41229 24.6336 2.50607 25.0106 2.68827C25.3876 2.87048 25.7301 3.13754 26.0186 3.47421C26.3072 3.81088 26.536 4.21056 26.6922 4.65044C26.8483 5.09032 26.9287 5.56178 26.9287 6.0379C26.9287 6.99947 26.6013 7.92165 26.0186 8.60159C25.4359 9.28152 24.6456 9.6635 23.8216 9.6635C22.9975 9.6635 22.2072 9.28152 21.6245 8.60159C21.0418 7.92165 20.7144 6.99947 20.7144 6.0379ZM23.8216 4.82936C23.5469 4.82936 23.2834 4.95669 23.0892 5.18333C22.895 5.40998 22.7858 5.71737 22.7858 6.0379C22.7858 6.35842 22.895 6.66582 23.0892 6.89246C23.2834 7.1191 23.5469 7.24643 23.8216 7.24643C24.0962 7.24643 24.3597 7.1191 24.5539 6.89246C24.7482 6.66582 24.8573 6.35842 24.8573 6.0379C24.8573 5.71737 24.7482 5.40998 24.5539 5.18333C24.3597 4.95669 24.0962 4.82936 23.8216 4.82936Z" fill="black"/>
<path d="M5.17874 2.41229C4.35467 2.41229 3.56436 2.79427 2.98166 3.47421C2.39895 4.15414 2.07159 5.07633 2.07159 6.0379C2.07159 6.99947 2.39895 7.92165 2.98166 8.60159C3.56436 9.28152 4.35467 9.6635 5.17874 9.6635C6.0028 9.6635 6.79312 9.28152 7.37582 8.60159C7.95852 7.92165 8.28588 6.99947 8.28588 6.0379C8.28588 5.07633 7.95852 4.15414 7.37582 3.47421C6.79312 2.79427 6.0028 2.41229 5.17874 2.41229ZM4.14302 6.0379C4.14302 5.71737 4.25214 5.40998 4.44638 5.18333C4.64061 4.95669 4.90405 4.82936 5.17874 4.82936C5.45343 4.82936 5.71686 4.95669 5.9111 5.18333C6.10533 5.40998 6.21445 5.71737 6.21445 6.0379C6.21445 6.35842 6.10533 6.66582 5.9111 6.89246C5.71686 7.1191 5.45343 7.24643 5.17874 7.24643C4.90405 7.24643 4.64061 7.1191 4.44638 6.89246C4.25214 6.66582 4.14302 6.35842 4.14302 6.0379Z" fill="black"/>
<path d="M6.76943 12.0806C6.40487 12.815 6.21334 13.6489 6.21429 14.4976H2.07143V20.5403C2.07126 21.1415 2.19923 21.7334 2.4438 22.2625C2.68838 22.7917 3.04189 23.2416 3.47252 23.5717C3.90314 23.9018 4.39736 24.1018 4.91068 24.1536C5.42401 24.2054 5.94032 24.1075 6.41314 23.8686C6.56643 24.6687 6.80671 25.4325 7.11743 26.1455C6.33125 26.5159 5.47915 26.6554 4.63597 26.5517C3.79279 26.4481 2.98432 26.1044 2.28156 25.551C1.57879 24.9975 1.00323 24.2512 0.605422 23.3776C0.207611 22.5039 -0.000281813 21.5296 2.86713e-07 20.5403V14.4976C2.86713e-07 13.8566 0.218239 13.2418 0.606708 12.7885C0.995176 12.3352 1.52205 12.0806 2.07143 12.0806H6.76943Z" fill="black"/>
<path d="M21.8826 26.1455C22.6688 26.5159 23.5209 26.6554 24.3641 26.5517C25.2073 26.4481 26.0157 26.1044 26.7185 25.551C27.4213 24.9975 27.9968 24.2512 28.3946 23.3776C28.7924 22.5039 29.0003 21.5296 29.0001 20.5403V14.4976C29.0001 13.8566 28.7818 13.2418 28.3934 12.7885C28.0049 12.3352 27.478 12.0806 26.9286 12.0806H22.2306C22.5828 12.7912 22.7858 13.6154 22.7858 14.4976H26.9286V20.5403C26.9288 21.1415 26.8008 21.7334 26.5563 22.2625C26.3117 22.7917 25.9582 23.2416 25.5275 23.5717C25.0969 23.9018 24.6027 24.1018 24.0894 24.1536C23.5761 24.2054 23.0597 24.1075 22.5869 23.8686C22.4316 24.6687 22.1933 25.4325 21.8826 26.1455Z" fill="black"/>
<path d="M10.357 12.0806C9.80763 12.0806 9.28076 12.3352 8.89229 12.7885C8.50382 13.2418 8.28558 13.8566 8.28558 14.4976V21.7488C8.28558 23.672 8.9403 25.5164 10.1057 26.8762C11.2711 28.2361 12.8517 29.0001 14.4999 29.0001C16.148 29.0001 17.7286 28.2361 18.894 26.8762C20.0594 25.5164 20.7142 23.672 20.7142 21.7488V14.4976C20.7142 13.8566 20.4959 13.2418 20.1074 12.7885C19.719 12.3352 19.1921 12.0806 18.6427 12.0806H10.357ZM10.357 14.4976H18.6427V21.7488C18.6427 23.0309 18.2062 24.2605 17.4293 25.1671C16.6524 26.0737 15.5986 26.583 14.4999 26.583C13.4011 26.583 12.3474 26.0737 11.5704 25.1671C10.7935 24.2605 10.357 23.0309 10.357 21.7488V14.4976Z" fill="black"/>
</svg>
